<svg width="29" height="28" viewBox="0 0 29 28" fill="none" xmlns="http://www.w3.org/2000/svg">
<path d="M22.1878 27.9987C21.9312 27.9417 21.7014 27.8382 21.5292 27.6292C21.3269 27.3835 21.2546 27.1016 21.2947 26.7902C21.4192 25.8266 21.5471 24.8636 21.6722 23.9003C21.6964 23.7152 21.7084 23.5283 21.734 23.3435C21.748 23.2425 21.6916 23.1928 21.6262 23.1342C21.0764 22.6416 20.5112 22.1647 19.9852 21.6477C19.0637 20.7419 18.2407 19.7481 17.4737 18.7085C17.3862 18.5898 17.302 18.5443 17.1486 18.5601C16.8611 18.5901 16.5702 18.5946 16.2807 18.5968C14.8784 18.6083 13.476 18.6215 12.0737 18.6218C11.518 18.6218 10.962 18.5946 10.4063 18.5721C9.83995 18.5491 9.40964 18.1129 9.4015 17.5143C9.37429 15.5142 9.35942 13.5135 9.3468 11.5131C9.34456 11.1538 9.37429 10.7942 9.39168 10.4351C9.41525 9.94672 9.81106 9.52538 10.2983 9.48358C10.6192 9.45609 10.9418 9.44319 11.2639 9.43309C11.787 9.41682 12.3105 9.40448 12.8337 9.39802C13.6842 9.38736 14.535 9.37502 15.3855 9.37811C16.0117 9.38035 16.6375 9.40251 17.2633 9.42495C17.4039 9.43 17.4931 9.39073 17.5789 9.27572C18.4555 8.1009 19.4135 6.9965 20.4806 5.99C20.8169 5.67273 21.1704 5.37342 21.5244 5.07579C21.6288 4.98798 21.6722 4.90411 21.6551 4.76665C21.5539 3.96044 21.463 3.15283 21.3631 2.34634C21.3143 1.95249 21.2503 1.56032 21.2001 1.16647C21.1334 0.643024 21.5118 0.128833 22.0305 0.0351392C22.1312 0.0169054 22.2347 0.00792882 22.3371 0.00792882C23.8471 0.0062457 25.3571 0.00596518 26.8675 0.00736778C27.4512 0.00792882 27.8846 0.336697 27.982 0.854255C28.0016 0.958888 28.0002 1.06829 28.0005 1.17545C28.0016 2.6622 27.9822 4.14923 28.0095 5.63542C28.0221 6.32522 27.4787 6.88878 26.6868 6.76451C25.6262 6.59816 24.5571 6.48399 23.492 6.34654C23.3699 6.33083 23.2701 6.35748 23.1683 6.4363C22.0145 7.32639 21.0052 8.36347 20.0865 9.48863C19.6197 10.0603 19.1863 10.6592 18.7349 11.2436C18.6536 11.3488 18.6213 11.4584 18.6236 11.5925C18.6449 12.8543 18.664 14.1161 18.6766 15.3778C18.6805 15.7703 18.667 16.163 18.6536 16.5552C18.6488 16.6977 18.6856 16.813 18.7694 16.9305C19.7196 18.2616 20.7594 19.5158 21.9494 20.6404C22.2888 20.961 22.6504 21.2584 23.0089 21.5577C23.0661 21.6054 23.1638 21.6337 23.2387 21.6267C23.8011 21.5728 24.3633 21.5145 24.924 21.4449C25.5684 21.3652 26.2105 21.2676 26.8546 21.1871C27.44 21.1142 27.9949 21.5883 27.9974 22.1779C28.0047 23.7814 28.0033 25.3851 27.9982 26.9885C27.9968 27.4792 27.6479 27.8781 27.1626 27.9762C27.1401 27.9807 27.1185 27.9908 27.0966 27.9984C25.4607 27.9987 23.8241 27.9987 22.1878 27.9987Z" fill="#8D67FB"/>
<path d="M11.1635 27.9997C10.6779 27.8695 10.3788 27.5671 10.3023 27.0625C10.2397 26.6518 10.1743 26.2414 10.1213 25.8296C10.0175 25.0242 9.92413 24.2174 9.82146 23.4118C9.77601 23.0555 9.8049 22.7214 10.0543 22.4376C10.2852 22.1747 10.5738 22.0631 10.9245 22.0681C12.069 22.0852 13.2135 22.1026 14.358 22.0992C15.2874 22.0964 16.2167 22.0617 17.1461 22.0445C17.7486 22.0333 18.1989 22.4246 18.2494 23.025C18.2668 23.2311 18.2303 23.4441 18.2022 23.6516C18.0496 24.7802 17.89 25.9076 17.7371 27.0361C17.6676 27.5497 17.3722 27.8569 16.8863 27.9997C14.9785 27.9997 13.071 27.9997 11.1635 27.9997Z" fill="#8D67FB"/>
<path d="M0 11.2525C0.106317 10.8758 0.310535 10.572 0.700175 10.46C0.985744 10.3781 1.28478 10.3377 1.58016 10.2976C2.56535 10.1635 3.55193 10.039 4.53768 9.90798C4.85158 9.86619 5.15342 9.87628 5.42468 10.0659C5.74447 10.2892 5.89819 10.5981 5.89455 10.9857C5.88445 12.0652 5.86257 13.1443 5.86593 14.2238C5.86874 15.1627 5.89903 16.1016 5.91811 17.0405C5.93073 17.6587 5.52623 18.1252 4.91385 18.1715C4.73488 18.185 4.55086 18.1519 4.37077 18.1272C3.21952 17.9676 2.06799 17.8085 0.917858 17.6405C0.464259 17.5743 0.166628 17.3095 0.0266493 16.871C0.0196363 16.8491 0.00897661 16.8281 0 16.8068C0 14.9554 0 13.1039 0 11.2525Z" fill="#8D67FB"/>
<path d="M0 0.844102C0.067044 0.706087 0.116696 0.555729 0.204779 0.432861C0.412082 0.144768 0.708872 0.00450878 1.06148 0.00366722C2.6136 0.00030099 4.16571 -0.00278472 5.71782 0.00422826C6.41238 0.00731397 6.85448 0.595843 6.7577 1.30443C6.57733 2.62764 6.41407 3.95309 6.26034 5.27967C6.18741 5.91 5.84069 6.27663 5.20784 6.35237C3.87257 6.51255 2.53814 6.67918 1.20399 6.84637C0.683344 6.91173 0.212072 6.62279 0.0420779 6.12403C0.0286129 6.08448 0.014026 6.04493 0 6.00565C0 4.28523 0 2.56453 0 0.844102Z" fill="#8D67FB"/>
<path d="M0 22.0512C0.117537 21.6282 0.362992 21.3126 0.806212 21.2279C1.02361 21.1864 1.26037 21.2195 1.48479 21.247C2.39283 21.3583 3.29946 21.4834 4.20722 21.5976C4.57302 21.6436 4.94106 21.6731 5.30742 21.7137C5.82722 21.7712 6.2048 22.1628 6.26455 22.6765C6.42473 24.0535 6.58967 25.43 6.75939 26.806C6.82475 27.3365 6.49093 27.8434 5.97085 27.9741C5.94392 27.9808 5.91755 27.9898 5.8909 27.9979C4.21704 27.9979 2.54347 27.9979 0.869609 27.9979C0.777879 27.9665 0.682503 27.9429 0.594981 27.9028C0.272664 27.7547 0.0970596 27.4863 0 27.1566C0 25.4547 0 23.7531 0 22.0512Z" fill="#8D67FB"/>
<path d="M0 27.1584C0.0970596 27.4881 0.272664 27.7565 0.594981 27.9049C0.682503 27.9453 0.777879 27.9689 0.869609 28C0.579833 28 0.289776 28 0 28C0 27.7195 0 27.439 0 27.1584Z" fill="#8D67FB"/>
<path d="M14.2007 5.90033C13.2287 5.91941 12.2567 5.93904 11.2847 5.95728C11.0799 5.9612 10.8707 5.98617 10.6709 5.95447C10.1147 5.86667 9.72166 5.37548 9.79319 4.82005C9.96207 3.50498 10.1478 2.19159 10.3455 0.880442C10.4255 0.350261 10.8524 0.00522284 11.3896 0.00382024C13.1193 -0.000668063 14.849 -0.000668063 16.5787 0.00410076C17.1349 0.00578388 17.5633 0.37635 17.6421 0.930936C17.818 2.16999 17.9872 3.40988 18.1468 4.65118C18.2278 5.28038 17.9193 5.76091 17.3664 5.90286C17.2685 5.9281 17.163 5.93231 17.0612 5.93259C16.1077 5.93483 15.1542 5.93399 14.2004 5.93399C14.2007 5.92277 14.2007 5.91155 14.2007 5.90033Z" fill="#8D67FB"/>
<path d="M28.021 13.9912C28.021 14.814 28.0213 15.6365 28.021 16.4592C28.0207 17.1527 27.6667 17.5569 26.9766 17.65C25.8801 17.7979 24.7835 17.9457 23.6864 18.0905C23.5153 18.1129 23.3422 18.13 23.17 18.1308C22.5882 18.1334 22.125 17.6742 22.127 17.0918C22.129 16.4982 22.1517 15.9049 22.1506 15.3114C22.1483 14.3065 22.1382 13.3017 22.1236 12.2969C22.1172 11.8439 22.0863 11.3911 22.0771 10.9383C22.0622 10.2182 22.6255 9.72986 23.34 9.82524C24.2561 9.94755 25.174 10.0586 26.0905 10.1809C26.4512 10.2292 26.8117 10.2856 27.1693 10.354C27.6939 10.4542 28.0185 10.8873 28.0207 11.4817C28.0235 12.3179 28.021 13.1544 28.021 13.9912Z" fill="#8D67FB"/>
</svg>
